<?xml version="1.0" encoding="utf-8"?>
<svg xmlns="http://www.w3.org/2000/svg" viewBox="0 0 283.904 283.904" xmlns:bx="https://boxy-svg.com">
  <defs>
    <bx:export>
      <bx:file format="svg"/>
    </bx:export>
  </defs>
  <g id="1" transform="matrix(1, 0, 0, 1, -483.283539, -3861.396729)"/>
  <g id="2" transform="matrix(1, 0, 0, 1, -483.283539, -3861.396729)"/>
  <g id="3" transform="matrix(1, 0, 0, 1, -483.283539, -3861.396729)"/>
  <g id="4" transform="matrix(1, 0, 0, 1, -483.283539, -3861.396729)"/>
  <g id="Engineering" transform="matrix(0.217454, 0, 0, 0.217454, 147.157257, -191.47551)" style="">
    <g transform="matrix(10.089602, 0, 0, 10.089602, -10230.586914, -20701.050781)" style="">
      <path d="M1064.829,2193.001c-1.409-6.948-4.145-13.414-7.929-19.125l5.585-8.173l-12.776-12.776l-8.173,5.585 c-5.711-3.784-12.176-6.52-19.125-7.929l-1.828-9.721h-18.068l-1.828,9.721c-6.948,1.409-13.414,4.145-19.125,7.929l-8.173-5.585 l-12.776,12.776l5.585,8.173c-3.784,5.711-6.52,12.176-7.929,19.125l-9.721,1.828v18.068l9.721,1.828 c1.409,6.948,4.145,13.414,7.929,19.125l-5.585,8.173l12.776,12.776l8.173-5.586c5.711,3.784,12.177,6.52,19.125,7.929 l1.828,9.721h18.068l1.828-9.721c6.948-1.409,13.414-4.145,19.125-7.929l8.173,5.586l12.776-12.776l-5.586-8.173 c3.784-5.711,6.52-12.177,7.929-19.125l9.721-1.828v-18.068L1064.829,2193.001z M1011.55,2245.895 c-23.176,0-42.031-18.855-42.031-42.032c0-23.176,18.855-42.031,42.031-42.031c23.177,0,42.032,18.855,42.032,42.031 C1053.582,2227.04,1034.727,2245.895,1011.55,2245.895z" style="fill: rgb(9, 101, 147);"/>
      <path d="M1013.599,2169.38v15.729h10.371C1021.562,2176.508,1017.623,2170.843,1013.599,2169.38z" style="fill: rgb(29, 149, 209);"/>
      <path d="M1030.414,2201.815h17.986c-0.248-4.527-1.316-8.833-3.05-12.781c-0.25,0.109-0.526,0.172-0.817,0.172 h-15.435C1029.848,2193.117,1030.307,2197.354,1030.414,2201.815z" style="fill: rgb(29, 149, 209);"/>
      <path d="M1024.949,2189.206h-11.35v12.609h12.717C1026.203,2197.224,1025.715,2192.997,1024.949,2189.206z" style="fill: rgb(29, 149, 209);"/>
      <path d="M999.131,2185.108h10.37v-15.729C1005.477,2170.843,1001.539,2176.508,999.131,2185.108z" style="fill: rgb(29, 149, 209);"/>
      <path d="M992.686,2205.912H974.7c0.248,4.527,1.316,8.833,3.05,12.781c0.251-0.109,0.526-0.172,0.817-0.172h15.435 C993.253,2214.61,992.793,2210.373,992.686,2205.912z" style="fill: rgb(29, 149, 209);"/>
      <path d="M994.002,2189.206h-15.435c-0.291,0-0.566-0.062-0.817-0.172c-1.735,3.948-2.802,8.254-3.05,12.781h17.986 C992.793,2197.354,993.253,2193.117,994.002,2189.206z" style="fill: rgb(29, 149, 209);"/>
      <path d="M1029.098,2218.521h15.435c0.291,0,0.566,0.062,0.816,0.171c1.735-3.948,2.803-8.254,3.05-12.781h-17.986 C1030.307,2210.373,1029.848,2214.61,1029.098,2218.521z" style="fill: rgb(29, 149, 209);"/>
      <path d="M996.785,2201.815h12.716v-12.609h-11.349C997.385,2192.997,996.897,2197.224,996.785,2201.815z" style="fill: rgb(29, 149, 209);"/>
      <path d="M994.92,2222.619h-15.156c5.277,8.924,14.199,15.43,24.721,17.47 C1000.364,2236.754,996.992,2230.562,994.92,2222.619z" style="fill: rgb(29, 149, 209);"/>
      <path d="M1004.484,2167.637c-10.522,2.041-19.444,8.547-24.721,17.471h15.156 C996.992,2177.166,1000.364,2170.973,1004.484,2167.637z" style="fill: rgb(29, 149, 209);"/>
      <path d="M998.152,2218.521h11.349v-12.609h-12.716C996.897,2210.503,997.385,2214.731,998.152,2218.521z" style="fill: rgb(29, 149, 209);"/>
      <path d="M1018.616,2167.637c4.121,3.336,7.493,9.528,9.565,17.471h15.156 C1038.06,2176.185,1029.137,2169.678,1018.616,2167.637z" style="fill: rgb(29, 149, 209);"/>
      <path d="M1018.615,2240.09c10.522-2.04,19.444-8.547,24.721-17.47h-15.156 C1026.108,2230.562,1022.736,2236.754,1018.615,2240.09z" style="fill: rgb(29, 149, 209);"/>
      <path d="M1026.315,2205.912h-12.717v12.609h11.35C1025.715,2214.731,1026.203,2210.503,1026.315,2205.912z" style="fill: rgb(29, 149, 209);"/>
      <path d="M1009.501,2238.347v-15.728h-10.37C1001.539,2231.219,1005.477,2236.884,1009.501,2238.347z" style="fill: rgb(29, 149, 209);"/>
      <path d="M1013.599,2222.619v15.728c4.025-1.463,7.963-7.128,10.371-15.728H1013.599z" style="fill: rgb(29, 149, 209);"/>
    </g>
  </g>
  <g id="g-1" transform="matrix(1, 0, 0, 1, -264.799469, -1540.832642)"/>
  <g id="g-2" transform="matrix(1, 0, 0, 1, -264.799469, -1540.832642)"/>
  <g id="g-3" transform="matrix(1, 0, 0, 1, -264.799469, -1540.832642)"/>
  <g id="g-4" transform="matrix(1, 0, 0, 1, -264.799469, -1540.832642)"/>
</svg>